<svg width="21" height="21" viewBox="0 0 21 21" fill="none" xmlns="http://www.w3.org/2000/svg">
<g clip-path="url(#clip0_179_4136)">
<path d="M10.5 0.614258C7.78625 0.614258 7.445 0.626758 6.37875 0.674258C5.3125 0.724258 4.58625 0.891758 3.95 1.13926C3.28262 1.39028 2.67811 1.78404 2.17875 2.29301C1.6701 2.79263 1.27638 3.39706 1.025 4.06426C0.7775 4.69926 0.60875 5.42676 0.56 6.48926C0.5125 7.55801 0.5 7.89801 0.5 10.6155C0.5 13.3305 0.5125 13.6705 0.56 14.7368C0.61 15.8018 0.7775 16.528 1.025 17.1643C1.28125 17.8218 1.6225 18.3793 2.17875 18.9355C2.73375 19.4918 3.29125 19.8343 3.94875 20.0893C4.58625 20.3368 5.31125 20.5055 6.37625 20.5543C7.44375 20.6018 7.78375 20.6143 10.5 20.6143C13.2163 20.6143 13.555 20.6018 14.6225 20.5543C15.6863 20.5043 16.415 20.3368 17.0513 20.0893C17.7182 19.8381 18.3223 19.4444 18.8212 18.9355C19.3775 18.3793 19.7188 17.8218 19.975 17.1643C20.2213 16.528 20.39 15.8018 20.44 14.7368C20.4875 13.6705 20.5 13.3305 20.5 10.6143C20.5 7.89801 20.4875 7.55801 20.44 6.49051C20.39 5.42676 20.2213 4.69926 19.975 4.06426C19.7237 3.39704 19.3299 2.7926 18.8212 2.29301C18.322 1.78385 17.7175 1.39006 17.05 1.13926C16.4125 0.891758 15.685 0.723008 14.6213 0.674258C13.5538 0.626758 13.215 0.614258 10.4975 0.614258H10.5013H10.5ZM9.60375 2.41676H10.5013C13.1713 2.41676 13.4875 2.42551 14.5413 2.47426C15.5162 2.51801 16.0462 2.68176 16.3988 2.81801C16.865 2.99926 17.1987 3.21676 17.5487 3.56676C17.8988 3.91676 18.115 4.24926 18.2963 4.71676C18.4338 5.06801 18.5963 5.59801 18.64 6.57301C18.6887 7.62676 18.6987 7.94301 18.6987 10.6118C18.6987 13.2805 18.6887 13.598 18.64 14.6518C18.5963 15.6268 18.4325 16.1555 18.2963 16.508C18.1359 16.9422 17.88 17.3348 17.5475 17.6568C17.1975 18.0068 16.865 18.223 16.3975 18.4043C16.0475 18.5418 15.5175 18.7043 14.5413 18.7493C13.4875 18.7968 13.1713 18.808 10.5013 18.808C7.83125 18.808 7.51375 18.7968 6.46 18.7493C5.485 18.7043 4.95625 18.5418 4.60375 18.4043C4.16937 18.2442 3.77641 17.9887 3.45375 17.6568C3.12094 17.3343 2.86465 16.9413 2.70375 16.5068C2.5675 16.1555 2.40375 15.6255 2.36 14.6505C2.3125 13.5968 2.3025 13.2805 2.3025 10.6093C2.3025 7.93926 2.3125 7.62426 2.36 6.57051C2.405 5.59551 2.5675 5.06551 2.705 4.71301C2.88625 4.24676 3.10375 3.91301 3.45375 3.56301C3.80375 3.21301 4.13625 2.99676 4.60375 2.81551C4.95625 2.67801 5.485 2.51551 6.46 2.47051C7.3825 2.42801 7.74 2.41551 9.60375 2.41426V2.41676ZM15.8387 4.07676C15.6812 4.07676 15.5251 4.1078 15.3795 4.1681C15.2339 4.22841 15.1017 4.3168 14.9902 4.42823C14.8788 4.53966 14.7904 4.67195 14.7301 4.81754C14.6698 4.96313 14.6388 5.11917 14.6388 5.27676C14.6388 5.43434 14.6698 5.59039 14.7301 5.73598C14.7904 5.88157 14.8788 6.01386 14.9902 6.12529C15.1017 6.23672 15.2339 6.32511 15.3795 6.38541C15.5251 6.44572 15.6812 6.47676 15.8387 6.47676C16.157 6.47676 16.4622 6.35033 16.6873 6.12529C16.9123 5.90024 17.0387 5.59502 17.0387 5.27676C17.0387 4.9585 16.9123 4.65327 16.6873 4.42823C16.4622 4.20319 16.157 4.07676 15.8387 4.07676ZM10.5013 5.47926C9.82009 5.46863 9.14362 5.59361 8.51122 5.84693C7.87883 6.10025 7.30314 6.47685 6.81769 6.95479C6.33223 7.43273 5.9467 8.00247 5.68355 8.63083C5.4204 9.2592 5.28488 9.93364 5.28488 10.6149C5.28488 11.2961 5.4204 11.9706 5.68355 12.5989C5.9467 13.2273 6.33223 13.797 6.81769 14.275C7.30314 14.7529 7.87883 15.1295 8.51122 15.3828C9.14362 15.6362 9.82009 15.7611 10.5013 15.7505C11.8494 15.7295 13.1353 15.1791 14.0812 14.2183C15.0272 13.2575 15.5574 11.9632 15.5574 10.6149C15.5574 9.26654 15.0272 7.97227 14.0812 7.01145C13.1353 6.05062 11.8494 5.50029 10.5013 5.47926ZM10.5013 7.28051C11.3854 7.28051 12.2334 7.63174 12.8586 8.25694C13.4838 8.88214 13.835 9.73009 13.835 10.6143C13.835 11.4984 13.4838 12.3464 12.8586 12.9716C12.2334 13.5968 11.3854 13.948 10.5013 13.948C9.61709 13.948 8.76913 13.5968 8.14393 12.9716C7.51873 12.3464 7.1675 11.4984 7.1675 10.6143C7.1675 9.73009 7.51873 8.88214 8.14393 8.25694C8.76913 7.63174 9.61709 7.28051 10.5013 7.28051Z" fill="#2C5782"/>
</g>
<defs>
<clipPath id="clip0_179_4136">
<rect width="20" height="20" fill="white" transform="translate(0.5 0.614258)"/>
</clipPath>
</defs>
</svg>
