<svg width="23" height="22" viewBox="0 0 23 22" fill="none" xmlns="http://www.w3.org/2000/svg">
<path fill-rule="evenodd" clip-rule="evenodd" d="M3 3.77735C3 3.5012 3.22386 3.27734 3.5 3.27734H6.51571V0.277344H3.5C1.567 0.277344 0 1.84435 0 3.77735V21.4544L2.34284 21.4544L3 21.4544L8.37427 21.4544C9.47884 21.4544 10.3743 20.5589 10.3743 19.4544V11.8796C10.3743 10.7751 9.47884 9.87965 8.37427 9.87965H3V3.77735Z" fill="#2C5782"/>
<path fill-rule="evenodd" clip-rule="evenodd" d="M15.3745 3.77735C15.3745 3.5012 15.5984 3.27734 15.8745 3.27734H18.8902V0.277344H15.8745C13.9415 0.277344 12.3745 1.84435 12.3745 3.77735V21.4544L14.7174 21.4544L15.3745 21.4544L20.7488 21.4544C21.8534 21.4544 22.7488 20.5589 22.7488 19.4544V11.8796C22.7488 10.7751 21.8534 9.87965 20.7488 9.87965H15.3745V3.77735Z" fill="#2C5782"/>
</svg>
