<svg width="21" height="21" viewBox="0 0 21 21" fill="none" xmlns="http://www.w3.org/2000/svg">
<path d="M0.5 2.04676C0.5 1.25551 1.1575 0.614258 1.96875 0.614258H19.0312C19.8425 0.614258 20.5 1.25551 20.5 2.04676V19.1818C20.5 19.973 19.8425 20.6143 19.0312 20.6143H1.96875C1.1575 20.6143 0.5 19.973 0.5 19.1818V2.04676ZM6.67875 17.3568V8.32551H3.6775V17.3568H6.67875ZM5.17875 7.09176C6.225 7.09176 6.87625 6.39926 6.87625 5.53176C6.8575 4.64551 6.22625 3.97176 5.19875 3.97176C4.17125 3.97176 3.5 4.64676 3.5 5.53176C3.5 6.39926 4.15125 7.09176 5.15875 7.09176H5.17875ZM11.3138 17.3568V12.313C11.3138 12.043 11.3337 11.773 11.4137 11.5805C11.63 11.0418 12.1238 10.483 12.9538 10.483C14.04 10.483 14.4738 11.3105 14.4738 12.5255V17.3568H17.475V12.1768C17.475 9.40176 15.995 8.11176 14.02 8.11176C12.4275 8.11176 11.7137 8.98676 11.3138 9.60301V9.63426H11.2938C11.3004 9.62382 11.3071 9.61341 11.3138 9.60301V8.32551H8.31375C8.35125 9.17301 8.31375 17.3568 8.31375 17.3568H11.3138Z" fill="#2C5782"/>
</svg>
