<svg width="24" height="25" viewBox="0 0 24 25" fill="none" xmlns="http://www.w3.org/2000/svg">
<g clip-path="url(#clip0_179_4290)">
<path d="M15.0499 5.61426C16.0267 5.80482 16.9243 6.28251 17.628 6.98619C18.3317 7.68987 18.8094 8.58752 18.9999 9.56426M15.0499 1.61426C17.0792 1.83969 18.9715 2.74843 20.4162 4.19127C21.8608 5.6341 22.7719 7.52527 22.9999 9.55426M21.9999 17.5343V20.5343C22.0011 20.8128 21.944 21.0884 21.8324 21.3436C21.7209 21.5988 21.5572 21.8278 21.352 22.0161C21.1468 22.2044 20.9045 22.3477 20.6407 22.437C20.3769 22.5262 20.0973 22.5593 19.8199 22.5343C16.7428 22.1999 13.7869 21.1484 11.1899 19.4643C8.77376 17.9289 6.72527 15.8804 5.18993 13.4643C3.49991 10.8555 2.44818 7.88525 2.11993 4.79426C2.09494 4.51772 2.12781 4.23902 2.21643 3.97588C2.30506 3.71275 2.4475 3.47095 2.6347 3.26588C2.82189 3.06081 3.04974 2.89697 3.30372 2.78478C3.55771 2.67259 3.83227 2.61452 4.10993 2.61426H7.10993C7.59524 2.60948 8.06572 2.78134 8.43369 3.09779C8.80166 3.41424 9.04201 3.8537 9.10993 4.33426C9.23656 5.29432 9.47138 6.23698 9.80993 7.14426C9.94448 7.50218 9.9736 7.89117 9.89384 8.26514C9.81408 8.6391 9.6288 8.98237 9.35993 9.25426L8.08993 10.5243C9.51349 13.0278 11.5864 15.1007 14.0899 16.5243L15.3599 15.2543C15.6318 14.9854 15.9751 14.8001 16.3491 14.7204C16.723 14.6406 17.112 14.6697 17.4699 14.8043C18.3772 15.1428 19.3199 15.3776 20.2799 15.5043C20.7657 15.5728 21.2093 15.8175 21.5265 16.1918C21.8436 16.566 22.0121 17.0438 21.9999 17.5343Z" stroke="#112132" stroke-width="2" stroke-linecap="round" stroke-linejoin="round"/>
</g>
<defs>
<clipPath id="clip0_179_4290">
<rect width="24" height="24" fill="white" transform="translate(0 0.614258)"/>
</clipPath>
</defs>
</svg>
