<svg width="23" height="22" viewBox="0 0 23 22" fill="none" xmlns="http://www.w3.org/2000/svg">
<path fill-rule="evenodd" clip-rule="evenodd" d="M19.7485 3.95459C19.7485 3.67845 19.5247 3.45459 19.2485 3.45459H16.2328V0.45459H19.2485C21.1815 0.45459 22.7485 2.0216 22.7485 3.95459V21.6316L20.4057 21.6316L19.7485 21.6316L14.3743 21.6316C13.2697 21.6316 12.3743 20.7362 12.3743 19.6316V12.0569C12.3743 10.9523 13.2697 10.0569 14.3743 10.0569H19.7485V3.95459Z" fill="#2C5782"/>
<path fill-rule="evenodd" clip-rule="evenodd" d="M7.37402 3.95459C7.37402 3.67845 7.15016 3.45459 6.87402 3.45459H3.85831V0.45459H6.87402C8.80702 0.45459 10.374 2.0216 10.374 3.95459V21.6316L8.03118 21.6316L7.37402 21.6316L1.99975 21.6316C0.895183 21.6316 -0.000247955 20.7362 -0.000247955 19.6316V12.0569C-0.000247955 10.9523 0.895181 10.0569 1.99975 10.0569H7.37402V3.95459Z" fill="#2C5782"/>
</svg>
