<svg width="20" height="21" viewBox="0 0 20 21" fill="none" xmlns="http://www.w3.org/2000/svg">
<path d="M17.0781 3.52181C16.157 2.59641 15.0602 1.86275 13.8515 1.36357C12.6427 0.864401 11.3463 0.609702 10.0377 0.614319C4.55424 0.614319 0.0853842 5.06181 0.0803616 10.5218C0.0803616 12.2705 0.53993 13.9718 1.40758 15.478L0 20.6143L5.27875 19.2368C6.73908 20.0279 8.3751 20.4426 10.0377 20.443H10.0427C15.5274 20.443 19.995 15.9955 20 10.5305C20.0012 9.2281 19.7436 7.93828 19.2419 6.7354C18.7402 5.53252 18.0057 4.44035 17.0781 3.52181ZM10.0377 18.7655C8.55474 18.766 7.09907 18.3688 5.8237 17.6155L5.52235 17.4355L2.39076 18.253L3.22702 15.2118L3.03114 14.898C2.20217 13.5859 1.76375 12.0668 1.7667 10.5168C1.7667 5.9843 5.47966 2.28681 10.0427 2.28681C11.1298 2.28487 12.2065 2.49716 13.2107 2.91143C14.215 3.3257 15.1269 3.93376 15.894 4.70056C16.6638 5.46437 17.274 6.37233 17.6895 7.37209C18.105 8.37184 18.3176 9.4436 18.3149 10.5255C18.3099 15.0743 14.5969 18.7655 10.0377 18.7655ZM14.5768 12.598C14.3295 12.4743 13.1077 11.8755 12.8779 11.7905C12.6494 11.7093 12.4824 11.6668 12.3192 11.9143C12.1522 12.1605 11.675 12.7218 11.5319 12.883C11.3887 13.0493 11.2406 13.068 10.992 12.9455C10.7446 12.8205 9.94224 12.5605 8.99297 11.7143C8.25213 11.058 7.75615 10.2455 7.60798 9.99929C7.46484 9.75179 7.59417 9.61929 7.71848 9.49554C7.82772 9.38554 7.96584 9.20554 8.09015 9.06304C8.21572 8.92054 8.25715 8.81554 8.33877 8.65054C8.42039 8.48305 8.38146 8.34055 8.31994 8.2168C8.25715 8.09305 7.76117 6.8718 7.55148 6.3793C7.35058 5.89305 7.1459 5.96055 6.99271 5.9543C6.84957 5.94555 6.68257 5.94555 6.51557 5.94555C6.38946 5.94867 6.26535 5.97771 6.15105 6.03084C6.03674 6.08397 5.9347 6.16005 5.85133 6.2543C5.6228 6.5018 4.98368 7.10055 4.98368 8.3218C4.98368 9.54304 5.87519 10.7168 6.00075 10.883C6.12381 11.0493 7.75113 13.548 10.2486 14.623C10.8388 14.8793 11.3034 15.0305 11.6662 15.1455C12.2627 15.3355 12.8014 15.3068 13.2308 15.2455C13.7079 15.173 14.7012 14.6455 14.9108 14.0668C15.1168 13.4868 15.1168 12.9918 15.054 12.888C14.9925 12.783 14.8255 12.7218 14.5768 12.598Z" fill="#112132"/>
</svg>
